<svg xmlns="http://www.w3.org/2000/svg" viewBox="0 0 21 15" width="21" height="15">
	<style>
		tspan { white-space:pre }
		.shp0 { fill: #191919 } 
	</style>
	<g id="header">
		<g id="section">
			<g id="a">
				<path id="svg" class="shp0" d="M18.48 15L2.52 15C1.13 15 0 13.94 0 12.63L0 2.37C0 1.06 1.13 0 2.52 0L18.48 0C19.87 0 21 1.06 21 2.37L21 12.63C21 13.94 19.87 15 18.48 15ZM19.32 12.22L19.32 3.5L13.8 7.61L19.32 12.22ZM18.2 13.42L12.44 8.61L10.5 10.06L8.56 8.61L2.8 13.42L18.2 13.42ZM7.2 7.61L1.68 3.5L1.68 12.22L7.2 7.61ZM2.52 1.58C2.34 1.58 2.19 1.64 2.05 1.73L10.5 8.1L18.95 1.73C18.81 1.64 18.66 1.58 18.48 1.58L2.52 1.58Z" />
			</g>
		</g>
	</g>
</svg>