<svg xmlns="http://www.w3.org/2000/svg" viewBox="0 0 13 21" width="13" height="21">
	<style>
		tspan { white-space:pre }
		.shp0 { fill: #191919 } 
	</style>
	<g id="header">
		<g id="section">
			<g id="a">
				<g id="a">
					<path id="svg" class="shp0" d="M11.27 21L1.73 21C0.78 21 0 20.25 0 19.32L0 1.68C0 0.75 0.78 0 1.73 0L11.27 0C12.22 0 13 0.75 13 1.68L13 19.32C13 20.25 12.22 21 11.27 21ZM6.5 20.16C7.22 20.16 7.8 19.6 7.8 18.9C7.8 18.2 7.22 17.64 6.5 17.64C5.78 17.64 5.2 18.2 5.2 18.9C5.2 19.6 5.78 20.16 6.5 20.16ZM8.67 0.84L4.33 0.84L4.33 1.68L8.67 1.68L8.67 0.84ZM11.27 3.36C11.27 2.9 10.88 2.52 10.4 2.52L2.6 2.52C2.12 2.52 1.73 2.9 1.73 3.36L1.73 15.96C1.73 16.42 2.12 16.8 2.6 16.8L10.4 16.8C10.88 16.8 11.27 16.42 11.27 15.96L11.27 3.36ZM7.77 10.89C6.15 12.46 4.51 12.87 4.07 12.44C3.69 12.07 3.03 11.62 3.89 10.95C4.76 10.27 5 10.6 5.4 10.98C5.67 11.25 6.37 10.69 6.97 10.11C7.57 9.53 8.14 8.86 7.87 8.59C7.47 8.21 7.13 7.97 7.83 7.13C8.52 6.29 8.99 6.94 9.37 7.31C9.81 7.73 9.39 9.32 7.77 10.89Z" />
				</g>
			</g>
		</g>
	</g>
</svg>