<svg xmlns="http://www.w3.org/2000/svg" viewBox="0 0 25 25" width="25" height="25">
	<style>
		tspan { white-space:pre }
		.shp0 { fill: #191919 } 
	</style>
	<g id="header">
		<g id="section">
			<g id="li">
				<g id="li">
					<path id="svg" class="shp0" d="M25 12.18C25 18.9 19.51 24.35 12.73 24.35C10.57 24.35 8.55 23.8 6.79 22.84L0 25L2.21 18.46C1.1 16.63 0.45 14.48 0.45 12.18C0.45 5.45 5.95 0 12.73 0C19.51 0 25 5.45 25 12.18M12.73 1.94C7.04 1.94 2.41 6.53 2.41 12.18C2.41 14.42 3.14 16.49 4.37 18.18L3.08 21.98L7.05 20.72C8.68 21.79 10.63 22.41 12.73 22.41C18.42 22.41 23.05 17.82 23.05 12.18C23.04 6.53 18.42 1.94 12.73 1.94M18.92 14.98C18.85 14.86 18.65 14.78 18.35 14.63C18.05 14.48 16.57 13.76 16.29 13.66C16.02 13.56 15.82 13.51 15.61 13.81C15.41 14.11 14.84 14.78 14.66 14.98C14.49 15.18 14.31 15.21 14.01 15.06C13.71 14.91 12.74 14.59 11.59 13.57C10.7 12.78 10.09 11.81 9.92 11.51C9.74 11.21 9.9 11.05 10.05 10.9C10.18 10.76 10.35 10.55 10.5 10.38C10.65 10.2 10.7 10.08 10.8 9.88C10.9 9.68 10.85 9.5 10.78 9.35C10.7 9.21 10.1 7.74 9.85 7.14C9.6 6.54 9.35 6.64 9.17 6.64C9 6.64 8.8 6.62 8.6 6.62C8.39 6.62 8.07 6.69 7.79 6.99C7.52 7.29 6.74 8.01 6.74 9.48C6.74 10.95 7.82 12.37 7.97 12.57C8.12 12.77 10.05 15.88 13.11 17.07C16.17 18.27 16.17 17.87 16.72 17.82C17.27 17.77 18.5 17.1 18.75 16.4C19 15.7 19 15.1 18.92 14.98" />
				</g>
			</g>
		</g>
	</g>
</svg>