<svg xmlns="http://www.w3.org/2000/svg" viewBox="0 0 25 21" width="25" height="21">
	<style>
		tspan { white-space:pre }
		.shp0 { fill: #191919 } 
	</style>
	<g id="header">
		<g id="section">
			<g id="li">
				<path id="svg" class="shp0" d="M24.66 0.22C24.31 -0.06 23.74 -0.09 22.77 0.2L22.77 0.2C22.09 0.4 16.08 2.55 10.77 4.62C6.01 6.49 2.14 8.13 1.68 8.33C1.16 8.49 0.06 8.95 0 9.66C-0.03 10.12 0.38 10.53 1.16 10.87C2 11.27 5.71 12.45 6.5 12.68C6.77 13.55 8.37 18.64 8.45 18.95C8.56 19.41 8.88 19.67 9.04 19.77C9.07 19.8 9.12 19.85 9.18 19.87C9.26 19.92 9.37 19.95 9.5 19.95C9.69 19.95 9.91 19.87 10.1 19.74C11.1 18.98 12.83 17.26 13.32 16.78C15.46 18.36 17.79 20.13 18 20.33L18.03 20.36C18.54 20.77 19.08 21 19.57 21C19.73 21 19.9 20.97 20.06 20.92C20.63 20.74 21.03 20.23 21.17 19.54C21.17 19.51 21.2 19.41 21.25 19.23C22.17 15.45 22.9 12.12 23.5 9.33C24.07 6.59 24.53 3.91 24.8 2.47C24.85 2.12 24.91 1.83 24.93 1.65C25.01 1.14 25.07 0.55 24.66 0.22ZM8.07 11.61L19.98 4.52C20.01 4.49 20.06 4.47 20.09 4.44L20.09 4.44C20.11 4.44 20.11 4.42 20.14 4.42C20.17 4.42 20.17 4.42 20.19 4.39C20.17 4.42 20.14 4.49 20.09 4.55L16.81 7.44C14.54 9.41 12.56 10.99 10.58 12.68C10.58 12.68 10.58 12.68 10.58 12.71L10.56 12.73C10.56 12.73 10.56 12.76 10.53 12.76C10.53 12.78 10.53 12.78 10.5 12.81L10.5 12.83C10.5 12.83 10.5 12.83 10.5 12.86C10.37 14.29 10.12 16.75 10.02 17.85C10.02 17.85 10.02 17.85 10.02 17.82C9.91 17.52 8.39 12.63 8.07 11.61Z" />
			</g>
		</g>
	</g>
</svg>