<svg xmlns="http://www.w3.org/2000/svg" viewBox="0 0 21 25" width="21" height="25">
	<style>
		tspan { white-space:pre }
		.shp0 { fill: #191919 } 
	</style>
	<g id="header">
		<g id="section">
			<g id="li">
				<path id="svg" class="shp0" d="M20.87 7.2C20.73 6.35 20.53 5.53 20.18 4.75C19.63 3.48 18.81 2.49 17.74 1.73C16.86 1.11 15.9 0.69 14.89 0.42C13.82 0.14 12.73 0.02 11.62 0.01C10.76 0 9.91 -0.01 9.05 0.02C8.33 0.04 7.62 0.11 6.9 0.24C5.75 0.45 4.66 0.85 3.64 1.48C2.27 2.32 1.28 3.52 0.67 5.11C0.24 6.23 0.04 7.4 0 8.61C-0.01 9.14 0.03 9.67 0.02 10.2C0.02 10.45 0.02 10.72 0.03 10.98C0.04 11.34 0.09 11.71 0.09 12.07C0.09 12.46 0.12 12.84 0.16 13.23C0.28 14.22 0.5 15.18 0.9 16.08C1.31 17.02 1.88 17.82 2.6 18.5C3.28 19.14 4.05 19.6 4.88 19.97C5.03 20.04 5.01 20.02 5.01 20.19C5 20.93 4.99 21.66 4.98 22.4C4.98 23.13 4.97 23.87 4.97 24.6C4.97 24.65 4.97 24.71 4.98 24.76C5.02 24.99 5.21 25.06 5.38 24.93C5.45 24.88 5.52 24.81 5.57 24.74C6.13 24.04 6.68 23.33 7.24 22.62C7.69 22.05 8.14 21.48 8.59 20.9C8.65 20.83 8.71 20.8 8.8 20.8C9.09 20.84 9.37 20.83 9.66 20.83C10.22 20.83 10.77 20.83 11.33 20.83C12.24 20.83 13.15 20.75 14.04 20.59C15.18 20.37 16.27 19.98 17.29 19.35C18.52 18.58 19.46 17.53 20.08 16.12C20.59 14.98 20.82 13.75 20.9 12.49C20.92 12.03 20.92 11.57 20.94 11.11C20.98 10.45 20.99 9.77 21 9.1C21.01 8.46 20.97 7.83 20.87 7.2ZM16.16 15.34C16.07 15.71 15.9 16.03 15.68 16.32C15.3 16.84 14.83 17.22 14.26 17.43C14.1 17.49 13.95 17.53 13.78 17.54C13.58 17.56 13.38 17.48 13.19 17.42C13 17.36 12.82 17.26 12.65 17.17C11.77 16.75 10.93 16.24 10.13 15.65C8.93 14.77 7.86 13.74 6.93 12.53C6.24 11.63 5.63 10.65 5.12 9.61C4.79 8.94 4.5 8.26 4.25 7.55C4.15 7.24 4.1 6.85 4.1 6.55C4.12 5.68 4.48 5.02 5.13 4.55C5.41 4.35 5.7 4.19 6.03 4.12C6.37 4.04 6.69 4.09 6.98 4.33C7.16 4.48 7.32 4.66 7.47 4.85C7.99 5.48 8.43 6.16 8.79 6.92C8.85 7.05 8.9 7.18 8.94 7.33C9.05 7.73 8.97 8.09 8.72 8.41C8.63 8.52 8.52 8.62 8.41 8.71C8.31 8.79 8.21 8.88 8.11 8.98C7.88 9.21 7.82 9.5 7.89 9.83C7.92 9.97 7.96 10.1 8.01 10.22C8.27 10.86 8.63 11.44 9.09 11.94C9.36 12.24 9.65 12.49 9.98 12.71C10.29 12.93 10.6 13.13 10.95 13.27C11.27 13.4 11.52 13.32 11.73 13.02C11.82 12.89 11.9 12.75 12.01 12.63C12.2 12.4 12.42 12.23 12.7 12.16C13 12.08 13.3 12.13 13.58 12.27C13.84 12.39 14.08 12.58 14.31 12.76C14.78 13.12 15.23 13.5 15.67 13.89C15.79 14 15.89 14.12 15.99 14.25C16.21 14.58 16.26 14.95 16.16 15.34ZM14.89 9.77C14.84 10.04 14.67 10.19 14.42 10.2C14.15 10.2 13.98 10.07 13.93 9.81C13.9 9.71 13.9 9.6 13.89 9.49C13.84 9.02 13.74 8.54 13.57 8.09C13.34 7.45 12.91 7.01 12.34 6.74C11.94 6.55 11.52 6.42 11.09 6.34C10.98 6.32 10.87 6.29 10.76 6.24C10.71 6.21 10.66 6.17 10.63 6.12C10.49 5.93 10.5 5.72 10.57 5.51C10.64 5.31 10.77 5.21 10.96 5.18C11.12 5.16 11.27 5.19 11.43 5.22C11.86 5.29 12.29 5.41 12.69 5.62C13.2 5.89 13.64 6.27 14.02 6.74C14.33 7.15 14.57 7.6 14.73 8.11C14.84 8.51 14.9 8.9 14.9 9.34C14.9 9.46 14.92 9.62 14.89 9.77ZM13.29 9.2C13.29 9.34 13.29 9.49 13.25 9.62C13.18 9.83 13.04 9.95 12.85 9.98C12.65 10.01 12.49 9.93 12.38 9.74C12.32 9.65 12.29 9.55 12.28 9.44C12.25 9.27 12.23 9.08 12.17 8.91C12.03 8.55 11.77 8.33 11.44 8.23C11.37 8.21 11.3 8.2 11.23 8.18C11.18 8.17 11.12 8.16 11.07 8.14C10.83 8.06 10.71 7.9 10.71 7.67C10.71 7.4 10.85 7.17 11.07 7.1C11.29 7.03 11.52 7.05 11.74 7.11C12.27 7.28 12.66 7.64 12.96 8.13C13.16 8.44 13.29 8.8 13.29 9.2ZM16.58 10.04C16.54 10.45 16.21 10.66 15.87 10.5C15.66 10.41 15.6 10.21 15.58 9.99C15.56 9.72 15.54 9.44 15.5 9.17C15.37 8.33 15.16 7.53 14.76 6.79C14.45 6.25 14.06 5.81 13.56 5.46C12.99 5.05 12.36 4.81 11.7 4.65C11.41 4.58 11.12 4.52 10.83 4.49C10.76 4.48 10.69 4.47 10.63 4.44C10.42 4.36 10.32 4.2 10.33 3.96C10.36 3.55 10.57 3.38 10.87 3.38C11.97 3.36 12.99 3.68 13.91 4.35C14.46 4.74 14.94 5.21 15.35 5.77C16.12 6.87 16.58 8.11 16.58 9.47C16.58 9.7 16.6 9.87 16.58 10.04Z" />
			</g>
		</g>
	</g>
</svg>